<svg width="162" height="70" viewBox="0 0 162 70" fill="none" xmlns="http://www.w3.org/2000/svg">
<path d="M35.8636 29.3655V30.4348L34.6298 32.3267V43.9248H33.8895C33.3959 43.9248 32.8201 44.0893 32.4088 44.3361C29.2009 46.3102 25.7461 47.215 21.6333 47.215C17.5205 47.215 15.4641 46.4747 13.1609 45.0764C10.7755 43.678 8.96584 41.7039 7.732 39.3184C6.49816 36.933 5.92236 34.3008 5.92236 31.3396C5.92236 28.3784 6.49816 25.7462 7.732 23.3607C8.96584 20.9753 10.7755 19.0012 13.1609 17.6028C15.5463 16.2045 18.4253 15.4642 21.6333 15.4642C24.8413 15.4642 24.5123 15.6287 25.8284 15.8754C26.8154 16.04 27.8025 16.369 28.7896 16.698C29.1186 16.7803 29.4476 16.9448 29.7767 17.1093C30.9282 17.6028 32.1621 17.7673 33.3959 17.6851H33.6427L34.6298 18.1786L32.0798 23.0317H30.846L30.5992 22.5382C30.5992 22.3737 30.4347 22.2092 30.2702 22.0447C29.9412 21.6334 29.5299 21.1398 28.9541 20.7286C28.1315 20.0705 27.0622 19.4947 25.7461 19.0012C25.4993 18.9189 25.1703 18.8367 24.9235 18.7544C23.7719 18.4254 22.5381 18.2609 21.222 18.2609C18.9188 18.2609 16.9447 18.8367 15.3818 19.9882C13.7367 21.1398 12.5029 22.7027 11.6803 24.6768C10.8577 26.651 10.3642 28.9542 10.3642 31.3396C10.3642 33.725 10.7755 36.0282 11.6803 38.0023C12.5029 39.9765 13.7367 41.5394 15.3818 42.691C17.0269 43.8425 19.0011 44.4183 21.222 44.4183C23.4429 44.4183 24.43 44.1716 25.7461 43.678C27.0622 43.1845 28.1315 42.6087 28.9541 41.9506C29.6121 41.4571 30.1057 40.8813 30.4347 40.3878V32.1622L29.2009 30.2703V29.2009H35.9459L35.8636 29.3655Z" fill="#BF5669"/>
<path d="M69.6709 42.7732V43.5958L69.2596 46.557H45.6521V45.4877L46.8859 43.5958V19.2479L45.6521 17.3561V16.2867H52.3971V17.3561L51.1633 19.2479V43.9248H66.5452L68.5193 42.7732H69.5886H69.6709Z" fill="#BF5669"/>
<path d="M155.711 16.2867V17.3561L154.23 19.4947L152.914 22.3737L141.398 47.1328H139.424L134.16 34.9589L128.484 47.1328H126.51L114.418 19.4125L113.102 17.3561V16.2867H119.929V17.3561L119.024 18.8367L128.402 40.8813L132.679 31.6686L127.332 19.4125L126.016 17.3561V16.2867H132.844V17.3561L131.939 18.8367L135.147 26.4042L138.601 18.9189L137.532 17.3561V16.2867H142.714V17.3561L141.234 19.4947L139.918 22.3737L136.463 29.6945L141.234 40.8813L151.433 18.9189L150.364 17.3561V16.2867H155.546H155.711Z" fill="#BF5669"/>
<path d="M74.853 31.4219C74.853 29.4477 75.2643 27.4736 76.0869 25.5817C76.9094 23.6898 78.061 21.9624 79.5416 20.3995C81.0222 18.8367 82.7496 17.6028 84.806 16.698C86.8624 15.7932 89.0833 15.2996 91.4688 15.2996C93.8542 15.2996 96.0751 15.7932 98.0493 16.698C100.023 17.6028 101.833 18.8367 103.314 20.3995C104.794 21.8801 105.946 23.6075 106.768 25.4994C107.591 27.3913 108.085 29.3655 108.085 31.3396C108.085 33.3138 107.673 35.2879 106.851 37.1798C106.028 39.0717 104.877 40.7991 103.478 42.3619C101.998 43.8425 100.27 45.1586 98.296 46.0635C96.2396 47.0505 93.9365 47.4618 91.4688 47.4618C88.9188 47.4618 86.6157 46.9683 84.5593 46.0635C82.5029 45.1586 80.7755 43.8425 79.2949 42.2797C77.8965 40.7168 76.7449 38.9894 76.0046 37.0975C75.2643 35.2056 74.853 33.2315 74.853 31.3396V31.4219ZM80.94 35.8637C81.3513 37.4266 82.0093 38.8249 82.9141 40.141C83.819 41.4571 84.9705 42.5264 86.3689 43.349C87.7672 44.1716 89.4946 44.5828 91.4688 44.5828C93.4429 44.5828 95.1703 44.1716 96.5687 43.349C97.967 42.5264 99.2009 41.4571 100.106 40.2233C101.01 38.9072 101.669 37.5088 102.162 35.9459C102.573 34.3831 102.82 32.9025 102.82 31.5041C102.82 30.1058 102.656 28.7897 102.244 27.3091C101.833 25.8284 101.257 24.3478 100.352 23.0317C99.4476 21.7156 98.296 20.564 96.8154 19.6592C95.4171 18.7544 93.6074 18.3431 91.4688 18.3431C89.3301 18.3431 87.6027 18.7544 86.2044 19.577C84.806 20.3995 83.5722 21.5511 82.7496 22.785C81.8448 24.1011 81.1868 25.4994 80.8577 27.0623C80.4464 28.6252 80.2819 30.1058 80.2819 31.5041C80.2819 32.9025 80.5287 34.3831 80.94 35.9459V35.8637ZM86.8624 8.55464L85.9576 8.06111L86.8624 7.56757C88.5898 6.66275 89.9882 5.18214 90.9752 3.45476L91.4688 2.54994L91.9623 3.45476C92.8671 5.18214 94.3477 6.58049 96.0751 7.56757L96.9799 8.06111L96.0751 8.55464C94.3477 9.45946 92.9494 10.9401 91.9623 12.6675L91.4688 13.5723L90.9752 12.6675C90.0704 10.9401 88.5898 9.54172 86.8624 8.55464ZM98.7073 12.5852L98.2138 12.3384L98.7073 12.0917C99.6944 11.5981 100.435 10.7756 100.928 9.87074L101.175 9.3772L101.422 9.87074C101.915 10.8578 102.738 11.5981 103.643 12.0917L104.136 12.3384L103.643 12.5852C102.656 13.0787 101.915 13.9013 101.422 14.8061L101.175 15.2996L100.928 14.8061C100.435 13.819 99.6121 13.0787 98.7073 12.5852ZM78.8836 12.5852L78.39 12.3384L78.8836 12.0917C79.8707 11.5981 80.611 10.7756 81.1045 9.87074L81.3513 9.3772L81.598 9.87074C82.0916 10.8578 82.9141 11.5981 83.819 12.0917L84.3125 12.3384L83.819 12.5852C82.8319 13.0787 82.0916 13.9013 81.598 14.8061L81.3513 15.2996L81.1045 14.8061C80.611 13.819 79.7884 13.0787 78.8836 12.5852Z" fill="#BF5669"/>
<path d="M49.7649 56.6263V67.5664H48.3665V62.5488H42.6908V67.5664H41.2925V56.6263H42.6908V61.3149H48.3665V56.6263H49.7649Z" fill="black"/>
<path d="M58.8953 62.1375C58.8953 58.9295 61.2807 56.4618 64.6532 56.4618C68.0257 56.4618 70.4111 58.8472 70.4111 62.1375C70.4111 65.4277 68.0257 67.8132 64.6532 67.8132C61.2807 67.8132 58.8953 65.4277 58.8953 62.1375ZM69.0128 62.1375C69.0128 59.6698 67.2031 57.8602 64.6532 57.8602C62.1033 57.8602 60.2936 59.7521 60.2936 62.1375C60.2936 64.5229 62.1033 66.4148 64.6532 66.4148C67.2031 66.4148 69.0128 64.6052 69.0128 62.1375Z" fill="black"/>
<path d="M79.3772 63.5358V56.6263H80.7755V63.3713C80.7755 65.181 82.0094 66.4148 83.6545 66.4148C85.2996 66.4148 86.5335 65.181 86.5335 63.3713V56.6263H87.9318V63.5358C87.9318 66.0035 86.1222 67.8132 83.6545 67.8132C81.1868 67.8132 79.3772 66.0858 79.3772 63.5358Z" fill="black"/>
<path d="M96.98 64.1939H98.3783C98.3783 65.5923 99.4477 66.3326 101.011 66.3326C102.573 66.3326 103.478 65.5923 103.478 64.4407C103.478 63.2891 102.162 62.8778 100.764 62.5488C99.0364 62.1375 97.2267 61.7262 97.2267 59.5053C97.2267 57.2844 98.7074 56.4618 100.928 56.4618C103.149 56.4618 104.548 57.6957 104.548 59.6698H103.149C103.149 58.436 102.162 57.7779 100.846 57.7779C99.5299 57.7779 98.5428 58.436 98.5428 59.423C98.5428 60.4101 99.7767 60.9037 101.175 61.2327C102.902 61.644 104.877 62.1375 104.877 64.3584C104.877 66.5793 103.231 67.5664 101.011 67.5664C98.7896 67.5664 96.98 66.2503 96.98 64.0294V64.1939Z" fill="black"/>
<path d="M120.341 66.2503V67.5664H114.007V56.6263H120.176V57.9424H115.323V61.3149H119.765V62.5488H115.323V66.2503H120.341Z" fill="black"/>
</svg>
